<svg xml:space="preserve" viewBox="0 0 1000 250" height="250" width="1000" version="1.1" xmlns:xlink="http://www.w3.org/1999/xlink" xmlns="http://www.w3.org/2000/svg">
<desc>Created with Fabric.js 5.2.4</desc>
<defs>
</defs>
<g id="c005a9f8-4b84-4ec2-8c1a-4b2a3c970282" transform="matrix(1 0 0 1 500 125)">
<rect height="250" width="1000" ry="0" rx="0" y="-125" x="-500" style="stroke: none; stroke-width: 1; stroke-dasharray: none; stroke-linecap: butt; stroke-dashoffset: 0; stroke-linejoin: miter; stroke-miterlimit: 4; fill: rgb(255,255,255); fill-rule: nonzero; opacity: 1; visibility: hidden;"></rect>
</g>
<g id="fe3ff808-36b2-45e2-8b7b-5a5b6359aa73" transform="matrix(Infinity NaN NaN Infinity 0 0)">
</g>
<g transform="matrix(2.23 0 0 2.23 497.62 124.49)">
<g style="">
		<g transform="matrix(1 0 0 1 -159.01 -0.57)">
<path stroke-linecap="round" d="M 49.7 13.97 C 41.78 22.41 51.63 43.01 59.85 34.27 C 67.7 26.000000000000004 57.57 5.410000000000004 49.7 13.970000000000002 Z M 26.36 24.32 C 38.71 38.72 51.51 24.6 39 9.290000000000001 C 35.16 4.650000000000001 26.79 -0.1999999999999993 22.78 5.760000000000002 C 19.48 10.650000000000002 21.1 18.25 26.36 24.32 Z M 23.81 39.93 C 27.259999999999998 35.1 24.4 26.71 20.45 21.83 C 16.65 17.009999999999998 8.36 12.279999999999998 4.109999999999999 18.08 C -3.9000000000000004 28.99 16.2 50.489999999999995 23.81 39.93 Z M 33.66 41.77 C 27.929999999999996 47.440000000000005 27.519999999999996 64.26 29.129999999999995 71.86 C 33.23 91.17 50.16 65.77 55.699999999999996 63.19 C 97.69999999999999 44.519999999999996 41.97 33.56 33.64999999999999 41.769999999999996 Z M 22.2 59.2 C 28.47 51.71 8.6 37.040000000000006 2.2699999999999996 45.550000000000004 C 1.1799999999999995 47.080000000000005 0.8899999999999997 47.080000000000005 0.9999999999999996 49.02 C 0.9899999999999995 50.17 1.3799999999999994 51.53 1.9899999999999995 52.790000000000006 C 5.55 59.720000000000006 17.32 64.87 22.2 59.2 Z" transform="translate(-36.09, -41.02)" style="stroke: none; stroke-width: 0; stroke-dasharray: none; stroke-linecap: butt; stroke-dashoffset: 0; stroke-linejoin: miter; stroke-miterlimit: 4; fill: rgb(242,159,31); fill-rule: evenodd; opacity: 1;"></path>
</g>
		<g transform="matrix(1 0 0 1 -159.52 -3.09)">
<path stroke-linecap="round" d="M 49.5 11.79 C 45.92 15.61 46.12 22.07 48.2 26.96 C 48.800000000000004 28.41 49.59 29.740000000000002 50.480000000000004 30.79 C 51.34 31.83 52.330000000000005 32.62 53.36000000000001 33.06 C 55.13000000000001 33.81 57.080000000000005 33.46 58.970000000000006 31.46 C 62.52 27.72 62.24000000000001 21.3 60.14000000000001 16.42 C 59.50000000000001 14.940000000000001 58.71000000000001 13.610000000000001 57.790000000000006 12.530000000000001 C 56.900000000000006 11.48 55.92000000000001 10.690000000000001 54.89000000000001 10.250000000000002 C 53.16000000000001 9.530000000000001 51.30000000000001 9.850000000000001 49.50000000000001 11.780000000000001 Z M 47.33 27.33 C 45.15 22.15 44.94 15.259999999999998 48.809999999999995 11.139999999999997 C 50.88999999999999 8.869999999999997 53.13999999999999 8.499999999999996 55.239999999999995 9.379999999999997 C 56.419999999999995 9.869999999999997 57.519999999999996 10.759999999999998 58.51 11.919999999999998 C 59.47 13.069999999999999 60.309999999999995 14.469999999999999 60.989999999999995 16.019999999999996 C 63.209999999999994 21.199999999999996 63.48 28.039999999999996 59.63999999999999 32.08 C 57.42999999999999 34.41 55.099999999999994 34.79 52.96999999999999 33.89 C 51.809999999999995 33.410000000000004 50.69999999999999 32.53 49.72999999999999 31.36 C 48.79999999999999 30.259999999999998 47.97999999999999 28.869999999999997 47.32999999999999 27.32 Z M 26.19 21.51 C 30.150000000000002 26.12 34.11 27.720000000000002 37.22 27.270000000000003 C 38.53 27.080000000000002 39.68 26.520000000000003 40.6 25.67 C 41.54 24.82 42.26 23.650000000000002 42.67 22.26 C 43.870000000000005 18.41 42.82 12.850000000000001 38.1 7.090000000000002 C 37.03 5.800000000000002 35.59 4.490000000000002 33.980000000000004 3.3900000000000015 C 32.27 2.2400000000000015 30.400000000000006 1.3600000000000017 28.580000000000005 1.0700000000000016 C 26.840000000000007 0.7800000000000016 25.160000000000004 1.0700000000000016 23.800000000000004 2.1900000000000017 C 23.390000000000004 2.5500000000000016 22.970000000000006 3.0000000000000018 22.600000000000005 3.530000000000002 C 21.050000000000004 5.850000000000001 20.640000000000004 8.810000000000002 21.260000000000005 11.930000000000003 C 21.920000000000005 15.140000000000004 23.600000000000005 18.510000000000005 26.190000000000005 21.510000000000005 Z M 37.35 28.2 C 33.96 28.71 29.67 27.03 25.47 22.119999999999997 C 22.77 18.979999999999997 21.009999999999998 15.459999999999997 20.33 12.079999999999998 C 19.68 8.719999999999999 20.13 5.519999999999999 21.84 2.969999999999999 C 22.26 2.339999999999999 22.7 1.839999999999999 23.23 1.4299999999999988 C 24.83 0.13 26.76 -0.21 28.77 0.12 C 30.72 0.43 32.74 1.3599999999999999 34.53 2.5900000000000003 C 36.2 3.72 37.71 5.1 38.85 6.470000000000001 C 43.78 12.530000000000001 44.86 18.4 43.59 22.53 C 43.11000000000001 24.09 42.300000000000004 25.380000000000003 41.25 26.36 C 40.17 27.33 38.84 27.99 37.36 28.21 Z M 22.9 37.16 C 24.389999999999997 35.06999999999999 24.639999999999997 32.239999999999995 24.09 29.339999999999996 C 23.43 25.83 21.66 22.229999999999997 19.55 19.629999999999995 C 18.61 18.429999999999996 17.36 17.219999999999995 15.96 16.199999999999996 C 14.21 14.909999999999997 12.25 13.909999999999997 10.32 13.559999999999995 C 8.46 13.209999999999996 6.640000000000001 13.439999999999996 5.16 14.609999999999996 C 4.73 14.949999999999996 4.3100000000000005 15.379999999999995 3.95 15.889999999999995 C 0.6200000000000001 20.399999999999995 2.41 26.929999999999993 6.12 32.01 C 7.34 33.69 8.77 35.199999999999996 10.280000000000001 36.449999999999996 C 11.790000000000001 37.67999999999999 13.38 38.65 14.950000000000001 39.22 C 17.96 40.33 20.900000000000002 39.949999999999996 22.91 37.17 Z M 25.02 29.17 C 25.599999999999998 32.31 25.33 35.400000000000006 23.66 37.71 C 21.37 40.9 18.02 41.36 14.6 40.11 C 12.94 39.5 11.24 38.5 9.66 37.19 C 8.09 35.9 6.6 34.309999999999995 5.3500000000000005 32.58 C 1.44 27.18 -0.42 20.22 3.2 15.29 C 3.64 14.709999999999999 4.11 14.229999999999999 4.59 13.84 C 6.31 12.49 8.379999999999999 12.19 10.5 12.62 C 12.56 13.03 14.66 14.079999999999998 16.52 15.45 C 17.99 16.52 19.3 17.79 20.29 19.05 C 22.49 21.740000000000002 24.34 25.5 25.02 29.17 Z M 33.46 39.59 C 31.05 41.96 29.62 46.440000000000005 28.87 51.34 C 27.91 57.800000000000004 28.16 65 29.07 69.24000000000001 C 30.27 74.94000000000001 32.61 76.53000000000002 35.39 75.93 C 39.38 75.08000000000001 44.42 70.04 48.53 65.89000000000001 C 51.160000000000004 63.26000000000001 53.43 60.960000000000015 54.980000000000004 60.240000000000016 C 64.5 56.02000000000002 68.9 52.22000000000001 69.95 49.01000000000002 C 70.66 46.89000000000002 69.81 44.98000000000002 67.98 43.36000000000002 C 66.06 41.65000000000002 63.1 40.26000000000002 59.68000000000001 39.20000000000002 C 50.11000000000001 36.240000000000016 37.080000000000005 36.030000000000015 33.46000000000001 39.59000000000002 Z M 27.95 51.2 C 28.71 46.11 30.24 41.46 32.8 38.92 C 36.629999999999995 35.120000000000005 50.129999999999995 35.25 59.959999999999994 38.29 C 63.49999999999999 39.38 66.6 40.86 68.61999999999999 42.64 C 70.72999999999999 44.52 71.69999999999999 46.76 70.85999999999999 49.3 C 69.72999999999999 52.75 65.15999999999998 56.73 55.37999999999998 61.089999999999996 C 53.98999999999998 61.74999999999999 51.76999999999998 63.959999999999994 49.20999999999998 66.56 C 44.98999999999998 70.81 39.84999999999998 75.97 35.57999999999998 76.86 C 32.23999999999998 77.56 29.479999999999976 75.83 28.129999999999978 69.43 C 27.22999999999998 65.10000000000001 26.949999999999978 57.760000000000005 27.949999999999978 51.2 Z M 21.32 56.39 C 23.2 54.15 22.490000000000002 51.15 20.46 48.4 C 19.5 47.07 18.22 45.8 16.78 44.71 C 15.330000000000002 43.6 13.740000000000002 42.68 12.110000000000001 42.01 C 8.280000000000001 40.46 4.310000000000001 40.41 2.130000000000001 43.33 C 1.9300000000000008 43.6 1.7900000000000007 43.8 1.6700000000000008 43.949999999999996 C 1.0300000000000007 44.79 0.8600000000000008 45.029999999999994 0.9400000000000008 46.48 L 0.9400000000000008 46.51 C 0.9200000000000008 47.019999999999996 1.0000000000000009 47.589999999999996 1.1700000000000008 48.19 C 1.3200000000000007 48.82 1.5800000000000007 49.46 1.8800000000000008 50.08 C 2.6800000000000006 51.62 3.870000000000001 53.059999999999995 5.340000000000001 54.31 C 7.420000000000001 56.09 9.990000000000002 57.480000000000004 12.52 58.160000000000004 C 15.02 58.84 17.49 58.830000000000005 19.439999999999998 57.830000000000005 C 20.15 57.50000000000001 20.769999999999996 57.02 21.319999999999997 56.400000000000006 Z M 21.22 47.85 C 23.49 50.94 24.25 54.36 22.04 57.010000000000005 C 21.41 57.730000000000004 20.7 58.290000000000006 19.89 58.7 C 17.72 59.81 15.010000000000002 59.830000000000005 12.31 59.1 C 9.63 58.38 6.94 56.92 4.750000000000001 55.04 C 3.190000000000001 53.71 1.910000000000001 52.16 1.060000000000001 50.5 C 0.7300000000000009 49.83 0.470000000000001 49.12 0.2900000000000009 48.44 C 0.12000000000000091 47.78 0.010000000000000897 47.129999999999995 0.020000000000000906 46.51 C -0.06999999999999909 44.73 0.1400000000000009 44.44 0.940000000000001 43.379999999999995 C 1.070000000000001 43.209999999999994 1.2300000000000009 42.989999999999995 1.380000000000001 42.769999999999996 C 3.870000000000001 39.419999999999995 8.260000000000002 39.41 12.47 41.129999999999995 C 14.17 41.81999999999999 15.860000000000001 42.8 17.35 43.949999999999996 C 18.84 45.12 20.200000000000003 46.449999999999996 21.220000000000002 47.849999999999994 Z" transform="translate(-35.58, -38.5)" style="stroke: none; stroke-width: 0; stroke-dasharray: none; stroke-linecap: butt; stroke-dashoffset: 0; stroke-linejoin: miter; stroke-miterlimit: 4; fill: rgb(255,255,255); fill-rule: nonzero; opacity: 1;"></path>
</g>
		<g transform="matrix(1 0 0 1 -156.14 13.3)">
<path stroke-linecap="round" d="M 58.42 43.66 C 58.42 46.48 57.75 49.15 56.42 51.66 C 55.09 54.18 52.95 56.22 50 57.79 C 47.07 59.36 43.31 60.14 38.730000000000004 60.14 L 28.630000000000003 60.14 L 28.630000000000003 82.72 L 19.5 82.72 L 19.5 27.07 L 38.730000000000004 27.07 C 42.99 27.07 46.61000000000001 27.81 49.56 29.28 C 52.53 30.740000000000002 54.75 32.730000000000004 56.21 35.24 C 57.68 37.760000000000005 58.42 40.56 58.42 43.660000000000004 Z M 38.73 52.7 C 42.19 52.7 44.769999999999996 51.92 46.48 50.35 C 48.19 48.77 49.04 46.54 49.04 43.660000000000004 C 49.04 37.580000000000005 45.6 34.53 38.73 34.53 L 28.629999999999995 34.53 L 28.629999999999995 52.7 L 38.73 52.7 Z" transform="translate(-38.96, -54.89)" style="stroke: none; stroke-width: 0; stroke-dasharray: none; stroke-linecap: butt; stroke-dashoffset: 0; stroke-linejoin: miter; stroke-miterlimit: 4; fill: rgb(30,25,76); fill-rule: nonzero; opacity: 1;"></path>
</g>
		<g transform="matrix(1 0 0 1 -106.01 13.26)">
<path stroke-linecap="round" d="M 100.68 71.34 L 77.39000000000001 71.34 L 73.39000000000001 82.72 L 63.87000000000002 82.72 L 83.81000000000002 26.990000000000002 L 94.37000000000002 26.990000000000002 L 114.31000000000002 82.72 L 104.71000000000002 82.72 L 100.69000000000003 71.34 Z M 98.12 63.91 L 89.08000000000001 38.059999999999995 L 79.95000000000002 63.91 L 98.12000000000002 63.91 Z" transform="translate(-89.09, -54.86)" style="stroke: none; stroke-width: 0; stroke-dasharray: none; stroke-linecap: butt; stroke-dashoffset: 0; stroke-linejoin: miter; stroke-miterlimit: 4; fill: rgb(30,25,76); fill-rule: nonzero; opacity: 1;"></path>
</g>
		<g transform="matrix(1 0 0 1 -48.06 13.17)">
<path stroke-linecap="round" d="M 119.9 54.78 C 119.9 49.34 121.16000000000001 44.46 123.69000000000001 40.13 C 126.23000000000002 35.800000000000004 129.67000000000002 32.42 134.02 30 C 138.38000000000002 27.57 143.15 26.35 148.31 26.35 C 154.24 26.35 159.51 27.8 164.12 30.700000000000003 C 168.75 33.61 172.1 37.730000000000004 174.18 43.080000000000005 L 163.20000000000002 43.080000000000005 C 161.75000000000003 40.14000000000001 159.75000000000003 37.95 157.20000000000002 36.52 C 154.64000000000001 35.080000000000005 151.68 34.35 148.3 34.35 C 144.62 34.35 141.33 35.18 138.45000000000002 36.83 C 135.57000000000002 38.489999999999995 133.32000000000002 40.86 131.70000000000002 43.96 C 130.07000000000002 47.06 129.26000000000002 50.660000000000004 129.26000000000002 54.77 C 129.26000000000002 58.88 130.07000000000002 62.49 131.70000000000002 65.58 C 133.33 68.66 135.58 71.05 138.45000000000002 72.75 C 141.34 74.43 144.62 75.27 148.3 75.27 C 151.68 75.27 154.64000000000001 74.55 157.20000000000002 73.1 C 159.75000000000003 71.66 161.75000000000003 69.47 163.20000000000002 66.53999999999999 L 174.18 66.53999999999999 C 172.1 71.86999999999999 168.74 75.99 164.12 78.86999999999999 C 159.51 81.74999999999999 154.23000000000002 83.17999999999999 148.31 83.17999999999999 C 143.09 83.17999999999999 138.31 81.97 133.98 79.52999999999999 C 129.66 77.09999999999998 126.22999999999999 73.72999999999999 123.69 69.39999999999999 C 121.16 65.07999999999998 119.89999999999999 60.19999999999999 119.89999999999999 54.74999999999999 Z" transform="translate(-147.04, -54.77)" style="stroke: none; stroke-width: 0; stroke-dasharray: none; stroke-linecap: butt; stroke-dashoffset: 0; stroke-linejoin: miter; stroke-miterlimit: 4; fill: rgb(30,25,76); fill-rule: nonzero; opacity: 1;"></path>
</g>
		<g transform="matrix(1 0 0 1 11.68 13.26)">
<path stroke-linecap="round" d="M 218.37 71.34 L 195.08 71.34 L 191.08 82.72 L 181.56 82.72 L 201.5 26.990000000000002 L 212.06 26.990000000000002 L 232 82.72 L 222.4 82.72 L 218.38 71.34 Z M 215.81 63.91 L 206.77 38.059999999999995 L 197.64000000000001 63.91 L 215.81 63.91 Z" transform="translate(-206.78, -54.86)" style="stroke: none; stroke-width: 0; stroke-dasharray: none; stroke-linecap: butt; stroke-dashoffset: 0; stroke-linejoin: miter; stroke-miterlimit: 4; fill: rgb(30,25,76); fill-rule: nonzero; opacity: 1;"></path>
</g>
		<g transform="matrix(1 0 0 1 70.46 13.16)">
<path stroke-linecap="round" d="M 280.9 43.09 C 279.45 40.31 277.45 38.21 274.9 36.800000000000004 C 272.34 35.38 269.38 34.67 266 34.67 C 262.32 34.67 259.03 35.5 256.15 37.15 C 253.26999999999998 38.809999999999995 251.01999999999998 41.16 249.39999999999998 44.21 C 247.76999999999998 47.25 246.95999999999998 50.77 246.95999999999998 54.77 C 246.95999999999998 58.77 247.76999999999998 62.31 249.39999999999998 65.37 C 251.02999999999997 68.44 253.27999999999997 70.80000000000001 256.15 72.45 C 259.03999999999996 74.11 262.32 74.93 266 74.93 C 270.97 74.93 275.01 73.55000000000001 278.1 70.78 C 281.19 68 283.09000000000003 64.24 283.79 59.49 L 262.89000000000004 59.49 L 262.89000000000004 52.2 L 293.54 52.2 L 293.54 59.330000000000005 C 292.96000000000004 63.650000000000006 291.42 67.63000000000001 288.94 71.27000000000001 C 286.46999999999997 74.9 283.24 77.79 279.25 79.96000000000001 C 275.28 82.12 270.86 83.19000000000001 266 83.19000000000001 C 260.78 83.19000000000001 256 81.98000000000002 251.67 79.54 C 247.35 77.11 243.92 73.74000000000001 241.38 69.41000000000001 C 238.85 65.09 237.59 60.21000000000001 237.59 54.76000000000001 C 237.59 49.31000000000002 238.85 44.44000000000001 241.38 40.110000000000014 C 243.92 35.780000000000015 247.35999999999999 32.40000000000001 251.71 29.98000000000001 C 256.07 27.55000000000001 260.84000000000003 26.330000000000013 266 26.330000000000013 C 271.93 26.330000000000013 277.2 27.780000000000012 281.81 30.680000000000014 C 286.44 33.59000000000002 289.79 37.710000000000015 291.87 43.06000000000002 L 280.89 43.06000000000002 Z" transform="translate(-265.56, -54.76)" style="stroke: none; stroke-width: 0; stroke-dasharray: none; stroke-linecap: butt; stroke-dashoffset: 0; stroke-linejoin: miter; stroke-miterlimit: 4; fill: rgb(30,25,76); fill-rule: nonzero; opacity: 1;"></path>
</g>
		<g transform="matrix(1 0 0 1 122.8 13.26)">
<path stroke-linecap="round" d="M 311.65 34.45 L 311.65 50.78 L 330.88 50.78 L 330.88 58.22 L 311.65 58.22 L 311.65 75.28 L 333.28 75.28 L 333.28 82.72 L 302.53 82.72 L 302.53 26.99 L 333.28 26.99 L 333.28 34.449999999999996 L 311.65 34.449999999999996 Z" transform="translate(-317.9, -54.86)" style="stroke: none; stroke-width: 0; stroke-dasharray: none; stroke-linecap: butt; stroke-dashoffset: 0; stroke-linejoin: miter; stroke-miterlimit: 4; fill: rgb(30,25,76); fill-rule: nonzero; opacity: 1;"></path>
</g>
		<g transform="matrix(1 0 0 1 172.23 13.26)">
<path stroke-linecap="round" d="M 390.2 82.72 L 381.05 82.72 L 353.59000000000003 41.16 L 353.59000000000003 82.72 L 344.46000000000004 82.72 L 344.46000000000004 26.99 L 353.59000000000003 26.99 L 381.05 68.47 L 381.05 26.99 L 390.2 26.99 L 390.2 82.72 Z" transform="translate(-367.33, -54.86)" style="stroke: none; stroke-width: 0; stroke-dasharray: none; stroke-linecap: butt; stroke-dashoffset: 0; stroke-linejoin: miter; stroke-miterlimit: 4; fill: rgb(30,25,76); fill-rule: nonzero; opacity: 1;"></path>
</g>
</g>
</g>
</svg>